<mxfile host="app.diagrams.net" modified="2024-03-16T06:00:46.435Z" agent="Mozilla/5.0 (X11; Linux x86_64) AppleWebKit/537.36 (KHTML, like Gecko) Chrome/119.0.0.0 Safari/537.36" version="24.0.7" etag="OIhEIN_tTngyztXgNtj5" type="github">
  <diagram name="第 1 页" id="LB3jLDUUA66bviF--63I">
    <mxGraphModel>
      <root>
        <mxCell id="0" />
        <mxCell id="1" parent="0" />
      </root>
    </mxGraphModel>
  </diagram>
</mxfile>
